PathFileType	4	(X/Y/Z)	D:\Documents\Paper\paper_03\paper_step_1_data\data_step_3\marker\BD\subject_01.tsv
DataRate	CameraRate	NumFrames	NumMarkers	Units	OrigDataRate	OrigDataStartFrame	OrigNumFrames
200	200	10	43	mm	200	100	200
Frame#	Time	Top.Head			L.Acromium			R.Acromium			Sternum			L.ASIS			R.ASIS			V.Sacral			R.Knee.Lat			R.Knee.Med			L.Knee.Lat			L.Knee.Med			L.Ankle.Lat			L.Toe.Tip			R.Heel			R.Ankle.Med			R.Ankle.Lat			L.Toe.Med			L.Toe.Lat			L.Heel			L.Ankle.Med			L.Shank1			L.Shank2			R.Toe.Tip			R.Toe.Med			R.Toe.Lat			L.Thigh2			L.Thigh1			L.Thigh3			R.Thigh3			R.Thigh1			R.Thigh2			R.Shank1			R.Shank2			R.Shank3			L.Shank3			L.Shank4			R.Shank4			L.Thigh4			R.Thigh4			R.Heel.Lat			R.Heel.Med			L.Heel.Lat			L.Heel.Med		
		X1	Y1	Z1	X2	Y2	Z2	X3	Y3	Z3	X4	Y4	Z4	X5	Y5	Z5	X6	Y6	Z6	X7	Y7	Z7	X8	Y8	Z8	X9	Y9	Z9	X10	Y10	Z10	X11	Y11	Z11	X12	Y12	Z12	X13	Y13	Z13	X14	Y14	Z14	X15	Y15	Z15	X16	Y16	Z16	X17	Y17	Z17	X18	Y18	Z18	X19	Y19	Z19	X20	Y20	Z20	X21	Y21	Z21	X22	Y22	Z22	X23	Y23	Z23	X24	Y24	Z24	X25	Y25	Z25	X26	Y26	Z26	X27	Y27	Z27	X28	Y28	Z28	X29	Y29	Z29	X30	Y30	Z30	X31	Y31	Z31	X32	Y32	Z32	X33	Y33	Z33	X34	Y34	Z34	X35	Y35	Z35	X36	Y36	Z36	X37	Y37	Z37	X38	Y38	Z38	X39	Y39	Z39	X40	Y40	Z40	X41	Y41	Z41	X42	Y42	Z42	X43	Y43	Z43
1497	7.48	925.291	1692.954	-993.079	931.93	1410.105	-817.717	1091.736	1399.77	-1090.043	899.732	1359.389	-1019.663	803.815	911.765	-933.208	927.351	931.531	-1134.677	1008.256	964.239	-953.421	1003.189	475.023	-1166.021	948.2	454.724	-1065.908	849.232	475.942	-846.853	885.644	456.688	-950.559	906.973	102.827	-808.724	727.251	56.509	-868.662	1104.904	34.318	-1104.181	990.189	103.272	-1115.33	1060.874	105.043	-1173.852	786.893	45.531	-908.276	793.452	46.353	-802.825	1001.382	31.473	-814.59	927.068	104.538	-894.64	830.715	388.21	-837.908	828.976	307.512	-819.759	876.127	54.513	-1277.162	900.015	44.54	-1205.399	986.501	37.475	-1275.044	790.821	612.937	-879.548	791.955	695.773	-875.793	836.112	692.22	-830.295	1031.203	656.586	-1156.168	976.645	647.994	-1189.44	977.63	565.031	-1182.417	987.597	390.215	-1205.116	1003.054	303.946	-1210.64	1046.797	399.414	-1181.959	882.995	395.944	-801.809	884.955	309.901	-785.294	1062.163	317.371	-1187.602	836.593	604.572	-833.981	1030.99	568.184	-1149.499	1098.298	32.172	-1172.697	1024.783	25.286	-1101.016	935.279	22.311	-780.079	956.474	27.332	-883.615
1498	7.485	925.235	1692.976	-993.06	931.879	1410.101	-817.719	1091.7	1399.782	-1090.027	899.679	1359.377	-1019.655	803.79	911.759	-933.205	927.329	931.51	-1134.666	1008.233	964.208	-953.437	1003.208	475.008	-1166.015	948.2	454.738	-1065.894	849.247	475.961	-846.821	885.633	456.713	-950.604	906.92	102.841	-808.73	727.285	56.528	-868.643	1104.923	34.29	-1104.197	990.211	103.284	-1115.313	1060.494	104.635	-1174.053	786.874	45.511	-908.215	793.455	46.362	-802.833	1001.329	31.468	-814.556	927.046	104.58	-894.649	830.715	388.203	-837.888	828.985	307.557	-819.74	876.126	54.502	-1277.153	900.016	44.522	-1205.429	986.464	37.463	-1275.034	790.821	612.919	-879.553	791.96	695.753	-875.796	836.078	692.205	-830.307	1031.211	656.593	-1156.138	976.66	647.961	-1189.445	977.637	565.009	-1182.389	987.613	390.201	-1205.124	1003.09	303.949	-1210.647	1046.804	399.414	-1181.935	882.999	395.958	-801.809	884.973	309.868	-785.284	1062.156	317.384	-1187.609	836.618	604.542	-834.04	1030.975	568.154	-1149.465	1098.302	32.14	-1172.68	1024.803	25.287	-1101.003	935.31	22.291	-780.062	956.476	27.349	-883.626
1499	7.49	925.172	1692.971	-993.022	931.816	1410.109	-817.704	1091.647	1399.831	-1090.047	899.662	1359.348	-1019.622	803.771	911.754	-933.198	927.322	931.524	-1134.685	1008.262	964.201	-953.42	1003.172	474.995	-1166.022	948.163	454.756	-1065.922	849.286	475.926	-846.81	885.664	456.738	-950.573	906.928	102.832	-808.704	727.304	56.555	-868.602	1104.898	34.32	-1104.194	990.225	103.234	-1115.266	1060.683	104.891	-1174.005	786.864	45.447	-908.207	793.44	46.347	-802.813	1001.337	31.472	-814.599	927.055	104.538	-894.632	830.744	388.183	-837.899	828.961	307.561	-819.753	876.111	54.514	-1277.155	900.013	44.541	-1205.413	986.465	37.439	-1275.03	790.83	612.895	-879.567	791.942	695.754	-875.814	836.119	692.168	-830.324	1031.206	656.606	-1156.139	976.671	647.929	-1189.418	977.641	565.016	-1182.398	987.59	390.21	-1205.134	1003.074	303.927	-1210.642	1046.819	399.389	-1181.925	883.028	395.94	-801.823	884.948	309.895	-785.277	1062.159	317.363	-1187.584	836.606	604.56	-834.025	1030.983	568.178	-1149.499	1098.29	32.165	-1172.69	1024.791	25.295	-1100.989	935.326	22.322	-780.084	956.512	27.339	-883.632
1500	7.495	925.115	1692.973	-993.023	931.799	1410.093	-817.699	1091.603	1399.847	-1090.048	899.634	1359.366	-1019.633	803.777	911.754	-933.193	927.338	931.532	-1134.702	1008.207	964.226	-953.442	1003.186	475.012	-1166.043	948.196	454.737	-1065.896	849.261	475.942	-846.8	885.633	456.727	-950.607	906.919	102.781	-808.732	727.315	56.556	-868.578	1104.92	34.323	-1104.207	990.211	103.288	-1115.284	1060.783	104.988	-1173.91	786.831	45.422	-908.196	793.451	46.347	-802.816	1001.374	31.48	-814.581	927.033	104.572	-894.64	830.712	388.222	-837.887	828.971	307.553	-819.753	876.101	54.503	-1277.161	900.007	44.513	-1205.41	986.476	37.447	-1275.038	790.824	612.877	-879.573	791.938	695.756	-875.82	836.127	692.19	-830.33	1031.22	656.595	-1156.12	976.664	647.95	-1189.416	977.635	564.998	-1182.384	987.587	390.175	-1205.107	1003.047	303.983	-1210.661	1046.786	399.434	-1181.965	882.985	395.94	-801.807	884.954	309.874	-785.311	1062.157	317.396	-1187.597	836.601	604.521	-834.022	1030.965	568.164	-1149.453	1098.296	32.189	-1172.69	1024.783	25.288	-1101.017	935.314	22.336	-780.061	956.487	27.341	-883.598
1501	7.5	925.067	1692.952	-992.962	931.812	1410.105	-817.654	1091.583	1399.845	-1090.046	899.606	1359.365	-1019.613	803.771	911.734	-933.194	927.332	931.531	-1134.688	1008.205	964.199	-953.429	1003.191	475.028	-1166.019	948.18	454.755	-1065.886	849.273	475.916	-846.821	885.623	456.74	-950.619	906.93	102.83	-808.713	727.356	56.522	-868.559	1104.897	34.322	-1104.185	990.209	103.246	-1115.264	1060.713	104.879	-1173.899	786.805	45.4	-908.17	793.431	46.348	-802.822	1001.358	31.501	-814.609	927.081	104.556	-894.648	830.711	388.215	-837.866	828.981	307.545	-819.764	876.088	54.477	-1277.17	900.013	44.529	-1205.415	986.481	37.439	-1275.046	790.822	612.89	-879.585	791.942	695.768	-875.821	836.088	692.192	-830.313	1031.216	656.61	-1156.106	976.668	647.944	-1189.413	977.649	564.975	-1182.376	987.569	390.195	-1205.124	1003.06	303.95	-1210.654	1046.764	399.41	-1181.937	883.011	395.952	-801.824	884.958	309.891	-785.298	1062.151	317.389	-1187.582	836.611	604.521	-834.037	1030.96	568.174	-1149.494	1098.271	32.207	-1172.701	1024.813	25.296	-1100.989	935.295	22.311	-780.076	956.488	27.281	-883.605
1502	7.505	924.997	1692.96	-992.944	931.766	1410.113	-817.661	1091.533	1399.867	-1090.039	899.562	1359.348	-1019.576	803.752	911.753	-933.224	927.305	931.533	-1134.691	1008.231	964.244	-953.448	1003.176	475.021	-1166.035	948.162	454.768	-1065.883	849.266	475.938	-846.807	885.646	456.673	-950.582	907.159	103.21	-808.464	727.379	56.569	-868.578	1104.909	34.321	-1104.206	990.225	103.131	-1115.256	1060.676	104.949	-1173.989	786.806	45.352	-908.149	793.456	46.345	-802.812	1001.317	31.502	-814.559	927.048	104.559	-894.653	830.725	388.199	-837.882	828.97	307.528	-819.748	876.085	54.523	-1277.192	900.004	44.529	-1205.419	986.465	37.446	-1275.031	790.816	612.905	-879.582	791.943	695.764	-875.823	836.102	692.175	-830.317	1031.215	656.575	-1156.11	976.665	647.968	-1189.434	977.656	564.989	-1182.378	987.596	390.199	-1205.137	1003.031	303.976	-1210.643	1046.769	399.403	-1181.93	882.982	395.924	-801.811	884.943	309.898	-785.276	1062.153	317.388	-1187.578	836.595	604.527	-834.053	1030.953	568.158	-1149.439	1098.288	32.174	-1172.703	1024.78	25.283	-1101.004	935.28	22.28	-780.086	956.498	27.247	-883.578
1503	7.51	924.949	1692.973	-992.896	931.729	1410.112	-817.66	1091.509	1399.887	-1090.045	899.527	1359.356	-1019.571	803.746	911.728	-933.24	927.309	931.546	-1134.691	1008.174	964.244	-953.427	1003.178	475.037	-1166.05	948.164	454.752	-1065.89	849.249	475.954	-846.774	885.667	456.704	-950.606	906.938	102.813	-808.739	727.409	56.591	-868.531	1104.896	34.341	-1104.193	990.222	103.248	-1115.306	1060.695	104.971	-1173.949	786.83	45.361	-908.139	793.443	46.355	-802.83	1001.342	31.505	-814.592	927.055	104.576	-894.632	830.73	388.202	-837.88	828.958	307.505	-819.753	876.077	54.525	-1277.214	899.982	44.517	-1205.413	986.461	37.463	-1275.024	790.814	612.889	-879.579	791.951	695.759	-875.843	836.102	692.186	-830.337	1031.194	656.599	-1156.099	976.682	647.95	-1189.43	977.632	564.986	-1182.347	987.582	390.206	-1205.122	1003.014	303.959	-1210.64	1046.786	399.415	-1181.973	883.013	395.938	-801.821	884.937	309.893	-785.284	1062.126	317.376	-1187.588	836.597	604.504	-834.063	1030.952	568.186	-1149.437	1098.277	32.181	-1172.702	1024.811	25.282	-1101.011	935.326	22.283	-780.095	956.503	27.256	-883.601
1504	7.515	924.871	1692.974	-992.906	931.731	1410.097	-817.616	1091.456	1399.9	-1090.028	899.502	1359.358	-1019.574	803.763	911.741	-933.22	927.272	931.545	-1134.694	1008.208	964.258	-953.436	1003.189	474.995	-1166.019	948.169	454.764	-1065.896	849.253	475.923	-846.784	885.678	456.7	-950.586	906.957	102.826	-808.732	727.419	56.596	-868.531	1104.905	34.325	-1104.2	990.186	103.274	-1115.278	1060.699	104.926	-1174.019	786.814	45.326	-908.154	793.438	46.337	-802.832	1001.355	31.506	-814.581	927.039	104.505	-894.658	830.733	388.217	-837.886	828.961	307.558	-819.754	876.044	54.559	-1277.233	899.992	44.506	-1205.411	986.477	37.432	-1275.035	790.809	612.87	-879.583	791.938	695.746	-875.808	836.102	692.171	-830.335	1031.203	656.588	-1156.126	976.663	647.939	-1189.437	977.636	564.982	-1182.363	987.571	390.175	-1205.113	1003.036	303.97	-1210.635	1046.777	399.408	-1181.967	882.983	395.959	-801.824	884.936	309.859	-785.301	1062.133	317.385	-1187.633	836.568	604.521	-834.04	1030.966	568.142	-1149.409	1098.293	32.198	-1172.724	1024.807	25.296	-1101.025	935.319	22.31	-780.087	956.461	27.257	-883.588
1505	7.52	924.796	1692.955	-992.877	931.68	1410.116	-817.635	1091.427	1399.913	-1090.01	899.491	1359.383	-1019.545	803.748	911.734	-933.221	927.267	931.543	-1134.712	1008.232	964.292	-953.422	1003.177	475.008	-1166.016	948.186	454.753	-1065.89	849.27	475.946	-846.769	885.622	456.728	-950.591	906.937	102.81	-808.727	727.415	56.599	-868.552	1104.891	34.312	-1104.213	990.201	103.263	-1115.307	1060.63	104.757	-1173.97	786.792	45.308	-908.141	793.451	46.355	-802.823	1001.384	31.516	-814.592	927.065	104.508	-894.682	830.739	388.204	-837.87	828.948	307.565	-819.772	876.023	54.547	-1277.234	900	44.5	-1205.429	986.495	37.427	-1275.041	790.816	612.898	-879.614	791.923	695.738	-875.832	836.075	692.178	-830.325	1031.196	656.62	-1156.091	976.657	647.95	-1189.449	977.636	564.977	-1182.368	987.575	390.216	-1205.12	1003.029	303.922	-1210.629	1046.786	399.402	-1181.951	882.961	395.968	-801.804	884.931	309.877	-785.301	1062.15	317.362	-1187.609	837.352	603.494	-834.704	1030.956	568.129	-1149.454	1098.287	32.15	-1172.691	1024.832	25.283	-1100.988	935.334	22.313	-780.071	956.473	27.298	-883.618
1506	7.525	924.725	1692.954	-992.84	931.672	1410.098	-817.603	1091.407	1399.933	-1090.004	899.477	1359.381	-1019.556	803.75	911.738	-933.231	927.259	931.526	-1134.687	1008.202	964.24	-953.423	1003.172	475.014	-1166.035	948.187	454.744	-1065.898	849.267	475.927	-846.769	885.61	456.697	-950.583	906.936	102.801	-808.74	727.43	56.607	-868.552	1104.919	34.335	-1104.217	990.243	103.182	-1115.275	1060.765	104.996	-1173.924	786.794	45.315	-908.149	793.442	46.34	-802.846	1001.344	31.482	-814.579	927.069	104.52	-894.685	830.749	388.193	-837.843	828.938	307.528	-819.762	876	54.534	-1277.259	900.018	44.516	-1205.398	986.491	37.417	-1275.04	790.809	612.861	-879.61	791.911	695.766	-875.828	836.071	692.162	-830.318	1031.192	656.574	-1156.119	976.646	647.946	-1189.442	977.609	564.994	-1182.372	987.58	390.171	-1205.113	1003.023	303.948	-1210.632	1046.781	399.386	-1181.936	882.966	395.932	-801.806	884.927	309.911	-785.283	1062.131	317.364	-1187.585	837.34	603.477	-834.697	1030.95	568.175	-1149.482	1098.279	32.151	-1172.693	1024.794	25.282	-1101.038	935.319	22.272	-780.097	956.493	27.277	-883.621
